PathFileType	4	(X/Y/Z)	Patient4_TMGait_0pt4_01_left_05.trc.trc
DataRate	CameraRate	NumFrames	NumMarkers	Units	OrigDataRate	OrigDataStartFrame	OrigNumFrames
79.096045197740	79.096045197740	6	33	mm	79.096045197740	1	       141
Frame#	Time	Sacral			L.Shoulder			Chest			R.Shoulder			Neck			R.ASIS			L.ASIS			R.Thigh.Superior			R.Thigh.Lateral			R.Thigh.Inferior			R.Patella			L.Thigh.Superior			L.Thigh.Lateral			L.Thigh.Inferior			L.Patella			L.Shank.Superior			L.Shank.Lateral			L.Shank.Inferior			R.Shank.Superior			R.Shank.Lateral			R.Shank.Inferior			R.Heel			R.Midfoot.Superior			R.Midfoot.Lateral			R.Toe			L.Heel			L.Midfoot.Lateral			L.Midfoot.Superior			L.Toe			L.Elbow			L.Wrist			R.Elbow			R.Wrist			
		X1	Y1	Z1	X2	Y2	Z2	X3	Y3	Z3	X4	Y4	Z4	X5	Y5	Z5	X6	Y6	Z6	X7	Y7	Z7	X8	Y8	Z8	X9	Y9	Z9	X10	Y10	Z10	X11	Y11	Z11	X12	Y12	Z12	X13	Y13	Z13	X14	Y14	Z14	X15	Y15	Z15	X16	Y16	Z16	X17	Y17	Z17	X18	Y18	Z18	X19	Y19	Z19	X20	Y20	Z20	X21	Y21	Z21	X22	Y22	Z22	X23	Y23	Z23	X24	Y24	Z24	X25	Y25	Z25	X26	Y26	Z26	X27	Y27	Z27	X28	Y28	Z28	X29	Y29	Z29	X30	Y30	Z30	X31	Y31	Z31	X32	Y32	Z32	X33	Y33	Z33	

1	5.370000000000	795.339329352256	1008.567412620139	518.142592978490	982.921606704531	1425.436888734216	319.788587667572	1084.578330495443	1362.949206196844	483.895879829141	1004.213585628388	1446.401369232455	655.113281674274	973.924669314931	1496.628427148734	474.376750737412	1027.739891284390	942.972930975001	629.423755010945	1005.062877831869	963.808279788938	355.881524822183	1062.207584124880	737.926558326555	596.840189186882	975.117253823235	632.246453095193	656.110845256340	1047.595411011701	577.290946072311	574.049239899149	1041.855221251902	490.951399704573	576.671798013912	1088.199205458448	781.900815933710	384.259490682122	1046.366425191548	657.122073701053	302.066572944587	1151.841308160347	596.819474854116	360.640920889892	1166.217006715629	508.346843303915	353.363647971155	1101.783223410371	439.138938830354	347.233038461206	960.518791589009	391.957187126367	302.069260055933	954.393050766324	261.312996134045	357.380386126114	1011.893596163592	402.923391722120	583.253762944578	939.178498799853	301.411973137697	646.125426551904	973.904888471614	205.939996267008	579.724361943489	833.407096106069	42.707523016007	554.240306447538	1005.308273768689	96.830245873732	585.193327644461	918.057097058222	37.177719911562	626.707296271373	1126.320275680688	41.999863413167	610.304508263267	766.661860058643	197.924938598848	400.095697764476	821.072202297653	148.043182361525	319.915727594353	927.420366318541	153.581791812229	338.246519134596	1000.922833801466	38.095578845368	312.088043336358	1031.111363288686	1101.576673236458	161.257623511604	1156.174412499691	874.198138545660	126.004548966728	987.862871311616	1122.184374129919	820.330496790500	1206.530714629951	988.913611077115	813.204349077862	
2	5.382642857143	794.119795132902	1009.802381188544	520.842095517057	981.385644139290	1425.728946363428	320.894952366191	1084.573260548129	1363.031681344163	483.929478730328	1006.587095197469	1447.008599666166	655.855524725005	974.109252564046	1496.974611773303	475.087823037172	1027.283715472286	942.891044577213	629.998118297433	1001.907296164369	964.717996863739	356.881167599786	1059.420531118308	737.327854153304	596.766022388091	971.742341393760	632.400961916936	656.630692546319	1043.130380421305	576.900030119321	574.125155784199	1036.683113332780	490.860728038407	576.764037608122	1086.538625746240	784.872436611044	384.241858443289	1045.333906263511	659.654736333386	302.059536006527	1152.065857049636	600.783779412997	359.410102186777	1167.894356895875	513.119754081141	351.921495348318	1106.141697931623	442.525922505109	345.937188056659	967.044479530773	389.142624040166	301.947597169090	967.934489088938	258.428079059974	356.087156089731	1006.661579510936	402.925214353993	583.464434431213	933.981967818339	301.478592697781	646.448099453512	968.553604929632	205.964058564285	579.959591466282	827.860569793129	42.864074212889	554.390986889451	999.941455460806	96.841493703173	585.341949888330	912.671706717133	37.182560000799	626.820531273694	1120.915520835368	41.952778153283	610.391135170656	785.030342905222	184.967962417702	400.755623671028	840.354178332183	139.444345892245	318.989686568226	946.027520786220	150.630947344150	335.920628115196	1024.996437296621	40.346810699931	306.614076299600	1025.810917667173	1100.627860353222	163.170938508460	1149.536256734225	872.472467912127	128.055179493921	993.626220011602	1122.285052579059	820.287446216111	1215.237778752930	996.078653480588	808.141037411430	
3	5.395285714286	792.943839101642	1011.002164870275	523.504392229886	979.866310192941	1425.996446299834	321.986563961255	1084.582641758920	1363.079014722463	483.942761834504	1008.963116368203	1447.575934348671	656.569861161534	974.298936997359	1497.295824803522	475.781471550262	1026.819350154259	942.776077054878	630.513778097790	998.796967188007	965.615690329643	357.824514330575	1056.629575001061	736.733491555167	596.622676511972	968.408574661956	632.548316407625	657.132815945214	1038.689711894320	576.510041974181	574.174256078608	1031.552130476310	490.770327785815	576.858474795535	1084.810892900343	787.704482848376	384.197732714977	1044.163112057343	662.033962174941	302.089857631581	1152.081643450460	604.518935230361	358.293708121114	1169.334326795791	517.721582621184	350.596687015964	1110.325252563767	445.802149395997	344.717120465329	973.611851055383	386.124767607192	301.761799216866	981.606625684548	255.446290581378	354.741462133314	1001.475343696149	402.924939078267	583.673990721295	928.831371460501	301.539208941834	646.765922339646	963.247763752976	205.986788612382	580.189248750462	822.374057565418	43.008831177172	554.534054022754	994.620308024528	96.849779539806	585.486049502507	907.334842585740	37.184919822648	626.931918238981	1115.558019919146	41.903188513050	610.474411188951	803.756704155427	171.818505188666	401.166210814649	860.025008098362	130.737273031520	317.886715591233	964.894690997676	147.642531379487	333.550155387500	1049.354080362105	42.742652440984	301.207885696952	1020.549395850200	1099.644875239774	165.095700299282	1142.951942613392	870.713401346188	130.156454121447	999.339628410291	1122.327578842245	820.178116074386	1223.807078849862	1003.130264937676	803.047427176062	
4	5.407928571429	791.845399999402	1012.127049868400	526.080861790085	978.382839237647	1426.214209346132	323.038815789491	1084.615926434457	1363.054985815252	483.909870127101	1011.332905337925	1448.058658434288	657.222851119429	974.496950556409	1497.564387082568	476.434594762100	1026.341950755336	942.599898347587	630.918333053115	995.782202378976	966.477169650081	358.653194641583	1053.839151273225	736.141635294167	596.364084864261	965.153369969259	632.677089525679	657.602577621244	1034.298839924328	576.115401853535	574.175938329342	1026.500705991182	490.673919032945	576.954535397063	1082.945139020907	790.245794578352	384.118782225493	1042.742491064365	664.122015562383	302.161431547827	1151.681687850995	607.802336096363	357.401105745584	1170.304076409685	521.990118491941	349.503153492649	1114.161082288692	448.869028401737	343.639794769897	980.267760557059	382.766338456553	301.439016240533	995.492970181935	252.347206800764	353.310925407392	996.372467620073	402.914509537832	583.877521863748	923.761174923884	301.585965949194	647.073119412497	958.017396295551	206.003551153423	580.406206142325	816.980770994854	43.132374598394	554.663588559079	989.367304825751	96.852074335572	585.619589720757	902.071179668950	37.182890566404	627.038762040863	1110.272171229676	41.850063256911	610.551119765780	823.129424249511	158.436805559427	401.100900502674	880.418637204011	121.924986137999	316.481977547017	984.217743570879	144.658192123740	331.135122888750	1074.182147155242	45.470723869825	296.050904251340	1015.355892876158	1098.591847705273	167.041616798935	1136.458707652487	868.882802958710	132.359364718755	1004.988629096628	1122.252295464688	819.921849972816	1232.123760482596	1009.935039826562	797.856385781944	
5	5.420571428571	790.846028209561	1013.141930308207	528.530587975506	976.949449915422	1426.359182906668	324.028794430997	1084.677897913243	1362.927302990366	483.806653857324	1013.687120476459	1448.415702949616	657.785693543917	974.705051963039	1497.754770145317	477.026795779494	1025.847771320671	942.338972442202	631.169954040267	992.907575923858	967.278419537999	359.315849657515	1051.055061003294	735.547241288901	595.962564504572	962.004237146271	632.772857741919	658.030246017380	1029.977130666576	575.707648207073	574.116400638794	1021.556577818204	490.561828666619	577.050510370843	1080.879166370483	792.366537975837	384.006176421422	1040.992671175258	665.812129791111	302.265100731315	1150.691676815962	610.451028930245	356.832812323959	1170.620889389823	525.800906919277	348.741957697281	1117.517313097368	451.656192818775	342.768133004804	987.082539680632	378.986503042665	300.901207889076	1009.660666660468	249.160045950253	351.783461869292	991.377081916247	402.884102795663	584.070752331536	918.791029413329	301.610069002865	647.363692063798	952.876194519028	206.007365235809	580.603368270291	811.688565906664	43.228734707400	554.776252859646	984.184739061446	96.846364971293	585.737673397895	896.884446598727	37.175089607530	627.138764455242	1105.061417115777	41.793277789210	610.618915210845	843.373521440798	144.875138548851	400.357961248330	901.821409674076	113.079199219024	314.684219529468	1004.157356751280	141.764163323835	328.706690793169	1099.622807817518	48.723363851440	291.378471711932	1010.243798235735	1097.434695349463	169.017733061394	1130.073773415786	866.943485604881	134.709217034804	1010.585505934749	1122.006305130744	819.448841128995	1240.115486084819	1016.380308062932	792.493359299386	
6	5.433214285714	789.953629250458	1014.018336833502	530.818902412367	975.576853552261	1426.413142245408	324.934947495203	1084.767698454785	1362.671963435477	483.613068384573	1016.011261661446	1448.613974881174	658.235660773245	974.922754505761	1497.846225344717	477.540830846696	1025.336541017300	941.978791475826	631.242403678757	990.212134349414	967.995417255495	359.773265938592	1048.289712853274	734.943499731042	595.414246249614	958.979945574993	632.819844131899	658.410381266978	1025.743736989215	575.277215431925	573.991131630449	1016.742233163093	490.421953553869	577.143312750756	1078.571055566509	793.968713759808	383.871211608167	1038.880369143353	667.038901344942	302.376591537868	1148.992828469041	612.338987190628	356.666643485045	1170.172244895912	529.074641047092	348.389053284992	1120.310817326070	454.124048385394	342.153601280467	994.124763060312	374.780446412576	300.077095456635	1024.119078816149	245.968463497511	350.173682438155	986.505779740637	402.823499557979	584.250244899032	913.931427903095	301.602942846656	647.631598245903	947.827545227795	205.989819941507	580.774326025946	806.487986707926	43.295366854778	554.871031968716	979.062289070774	96.831836635778	585.836921904746	891.764852433972	37.160837066379	627.229990108508	1099.915807167399	41.733831675811	610.676564304031	864.576505171952	131.303210037085	398.793050742235	924.387630958652	104.351347873368	312.456882165238	1024.773517369621	139.087973807886	326.330580759215	1125.698260623641	52.667024007198	287.463857982251	1005.218016525182	1096.147478609538	171.027599749654	1123.802732830947	864.867045525618	137.235880138407	1016.159250861233	1121.550541521176	818.706751800676	1247.746079656333	1022.372901811214	786.891411223553	
